<svg xmlns="http://www.w3.org/2000/svg" xmlns:xlink="http://www.w3.org/1999/xlink" contentStyleType="text/css" data-diagram-type="DESCRIPTION" height="651px" preserveAspectRatio="none" style="width:1415px;height:651px;background:#FFFFFF;" version="1.1" viewBox="0 0 1415 651" width="1415px" zoomAndPan="magnify"><?plantuml 1.2026.6?><defs/><g><g class="title" data-source-line="1"><text fill="#000000" font-family="sans-serif" font-size="14" font-weight="700" lengthAdjust="spacing" textLength="272.4531" x="567.9373" y="23.5352">Kentik SDK Runtime Dependency Map</text></g><!--entity API_Config--><g class="entity" data-qualified-name="API_Config" data-source-line="6" id="ent0001"><rect fill="#F1F1F1" height="36.4883" rx="2.5" ry="2.5" style="stroke:#181818;stroke-width:0.5;" width="90.7588" x="1151.85" y="59.8805"/><text fill="#000000" font-family="sans-serif" font-size="14" lengthAdjust="spacing" textLength="70.7588" x="1161.85" y="83.4156">API Config</text></g><!--entity Auth_Credentials--><g class="entity" data-qualified-name="Auth_Credentials" data-source-line="7" id="ent0002"><rect fill="#F1F1F1" height="36.4883" rx="2.5" ry="2.5" style="stroke:#181818;stroke-width:0.5;" width="133.415" x="932.83" y="475.8805"/><text fill="#000000" font-family="sans-serif" font-size="14" lengthAdjust="spacing" textLength="113.415" x="942.83" y="499.4156">Auth Credentials</text></g><!--entity Client_API--><g class="entity" data-qualified-name="Client_API" data-source-line="8" id="ent0003"><rect fill="#F1F1F1" height="36.4883" rx="2.5" ry="2.5" style="stroke:#181818;stroke-width:0.5;" width="85.3652" x="7" y="527.8805"/><text fill="#000000" font-family="sans-serif" font-size="14" lengthAdjust="spacing" textLength="65.3652" x="17" y="551.4156">Client API</text></g><!--entity Client_Mixin--><g class="entity" data-qualified-name="Client_Mixin" data-source-line="9" id="ent0004"><rect fill="#F1F1F1" height="36.4883" rx="2.5" ry="2.5" style="stroke:#181818;stroke-width:0.5;" width="101.3613" x="153.37" y="374.8805"/><text fill="#000000" font-family="sans-serif" font-size="14" lengthAdjust="spacing" textLength="81.3613" x="163.37" y="398.4156">Client Mixin</text></g><!--entity Error_Types--><g class="entity" data-qualified-name="Error_Types" data-source-line="10" id="ent0005"><rect fill="#F1F1F1" height="36.4883" rx="2.5" ry="2.5" style="stroke:#181818;stroke-width:0.5;" width="97.7178" x="1303.61" y="110.8805"/><text fill="#000000" font-family="sans-serif" font-size="14" lengthAdjust="spacing" textLength="77.7178" x="1313.61" y="134.4156">Error Types</text></g><!--entity Generated_Error_Classes--><g class="entity" data-qualified-name="Generated_Error_Classes" data-source-line="11" id="ent0006"><rect fill="#F1F1F1" height="36.4883" rx="2.5" ry="2.5" style="stroke:#181818;stroke-width:0.5;" width="182.6201" x="908.23" y="169.8805"/><text fill="#000000" font-family="sans-serif" font-size="14" lengthAdjust="spacing" textLength="162.6201" x="918.23" y="193.4156">Generated Error Classes</text></g><!--entity Generated_Models--><g class="entity" data-qualified-name="Generated_Models" data-source-line="12" id="ent0007"><rect fill="#F1F1F1" height="36.4883" rx="2.5" ry="2.5" style="stroke:#181818;stroke-width:0.5;" width="142.5957" x="928.24" y="240.8805"/><text fill="#000000" font-family="sans-serif" font-size="14" lengthAdjust="spacing" textLength="122.5957" x="938.24" y="264.4156">Generated Models</text></g><!--entity Generated_REST_Services--><g class="entity" data-qualified-name="Generated_REST_Services" data-source-line="13" id="ent0008"><rect fill="#F1F1F1" height="36.4883" rx="2.5" ry="2.5" style="stroke:#181818;stroke-width:0.5;" width="185.874" x="636.36" y="169.8805"/><text fill="#000000" font-family="sans-serif" font-size="14" lengthAdjust="spacing" textLength="165.874" x="646.36" y="193.4156">Generated REST Services</text></g><!--entity Generated_Service_Wrappers--><g class="entity" data-qualified-name="Generated_Service_Wrappers" data-source-line="14" id="ent0009"><rect fill="#F1F1F1" height="36.4883" rx="2.5" ry="2.5" style="stroke:#181818;stroke-width:0.5;" width="209.6289" x="340.73" y="248.8805"/><text fill="#000000" font-family="sans-serif" font-size="14" lengthAdjust="spacing" textLength="189.6289" x="350.73" y="272.4156">Generated Service Wrappers</text></g><!--entity REST_Runtime--><g class="entity" data-qualified-name="REST_Runtime" data-source-line="15" id="ent0010"><rect fill="#F1F1F1" height="36.4883" rx="2.5" ry="2.5" style="stroke:#181818;stroke-width:0.5;" width="113.6455" x="942.72" y="98.8805"/><text fill="#000000" font-family="sans-serif" font-size="14" lengthAdjust="spacing" textLength="93.6455" x="952.72" y="122.4156">REST Runtime</text></g><!--entity REST_Transport--><g class="entity" data-qualified-name="REST_Transport" data-source-line="16" id="ent0011"><rect fill="#F1F1F1" height="36.4883" rx="2.5" ry="2.5" style="stroke:#181818;stroke-width:0.5;" width="123.7764" x="667.4" y="350.8805"/><text fill="#000000" font-family="sans-serif" font-size="14" lengthAdjust="spacing" textLength="103.7764" x="677.4" y="374.4156">REST Transport</text></g><!--entity Transport_Base--><g class="entity" data-qualified-name="Transport_Base" data-source-line="17" id="ent0012"><rect fill="#F1F1F1" height="36.4883" rx="2.5" ry="2.5" style="stroke:#181818;stroke-width:0.5;" width="121.6641" x="938.71" y="393.8805"/><text fill="#000000" font-family="sans-serif" font-size="14" lengthAdjust="spacing" textLength="101.6641" x="948.71" y="417.4156">Transport Base</text></g><!--entity gRPC_Transport--><g class="entity" data-qualified-name="gRPC_Transport" data-source-line="18" id="ent0013"><rect fill="#F1F1F1" height="36.4883" rx="2.5" ry="2.5" style="stroke:#181818;stroke-width:0.5;" width="125.9502" x="666.32" y="434.8805"/><text fill="#000000" font-family="sans-serif" font-size="14" lengthAdjust="spacing" textLength="105.9502" x="676.32" y="458.4156">gRPC Transport</text></g><!--link API_Config to Error_Types--><g class="link" data-entity-1="ent0001" data-entity-2="ent0005" data-link-type="dependency" data-source-line="20" id="lnk14"><path d="M1242.96,93.0205 C1261.87,99.3105 1279.1856,105.0723 1298.4556,111.4823" fill="none" id="API_Config-to-Error_Types" style="stroke:#181818;stroke-width:1;"/><polygon fill="#181818" points="1303.2,113.0605,1295.9226,106.4242,1298.4556,111.4823,1293.3975,114.0153,1303.2,113.0605" style="stroke:#181818;stroke-width:1;stroke-linejoin:miter;stroke-miterlimit:10;"/></g><!--link Client_API to Auth_Credentials--><g class="link" data-entity-1="ent0003" data-entity-2="ent0002" data-link-type="dependency" data-source-line="21" id="lnk15"><path d="M92.78,561.1705 C123.04,570.6605 165.05,581.1305 203.05,581.1305 C203.05,581.1305 203.05,581.1305 730.29,581.1305 C818.17,581.1305 910.2513,540.6428 960.0913,515.0728" fill="none" id="Client_API-to-Auth_Credentials" style="stroke:#181818;stroke-width:1;"/><polygon fill="#181818" points="964.54,512.7905,954.7065,513.3398,960.0913,515.0728,958.3583,520.4577,964.54,512.7905" style="stroke:#181818;stroke-width:1;stroke-linejoin:miter;stroke-miterlimit:10;"/></g><!--link Client_API to Client_Mixin--><g class="link" data-entity-1="ent0003" data-entity-2="ent0004" data-link-type="dependency" data-source-line="22" id="lnk16"><path d="M69.06,527.6705 C98.35,498.2705 151.7523,444.6438 181.0723,415.1938" fill="none" id="Client_API-to-Client_Mixin" style="stroke:#181818;stroke-width:1;"/><polygon fill="#181818" points="184.6,411.6505,175.4155,415.2063,181.0723,415.1938,181.0848,420.8507,184.6,411.6505" style="stroke:#181818;stroke-width:1;stroke-linejoin:miter;stroke-miterlimit:10;"/></g><!--link Client_API to REST_Transport--><g class="link" data-entity-1="ent0003" data-entity-2="ent0011" data-link-type="dependency" data-source-line="23" id="lnk17"><path d="M92.81,535.1205 C208.47,504.9105 526.4423,421.854 662.1323,386.414" fill="none" id="Client_API-to-REST_Transport" style="stroke:#181818;stroke-width:1;"/><polygon fill="#181818" points="666.97,385.1505,657.2513,383.5547,662.1323,386.414,659.2729,391.295,666.97,385.1505" style="stroke:#181818;stroke-width:1;stroke-linejoin:miter;stroke-miterlimit:10;"/></g><!--link Client_API to gRPC_Transport--><g class="link" data-entity-1="ent0003" data-entity-2="ent0013" data-link-type="dependency" data-source-line="24" id="lnk18"><path d="M65.81,564.7805 C78.98,579.4405 99.51,598.7205 122.37,607.1305 C200.93,636.0305 227.59,616.9705 310.73,607.1305 C444.92,591.2405 482.79,590.8205 606.36,536.1305 C644.29,519.3405 679.1511,493.7032 702.5011,474.8332" fill="none" id="Client_API-to-gRPC_Transport" style="stroke:#181818;stroke-width:1;"/><polygon fill="#181818" points="706.39,471.6905,696.8759,474.2363,702.5011,474.8332,701.9042,480.4585,706.39,471.6905" style="stroke:#181818;stroke-width:1;stroke-linejoin:miter;stroke-miterlimit:10;"/></g><!--link Client_Mixin to Generated_Service_Wrappers--><g class="link" data-entity-1="ent0004" data-entity-2="ent0009" data-link-type="dependency" data-source-line="25" id="lnk19"><path d="M232.16,374.5205 C247.33,364.4405 266.75,352.0405 284.73,342.1305 C322.97,321.0305 363.5844,302.1963 396.1344,287.8563" fill="none" id="Client_Mixin-to-Generated_Service_Wrappers" style="stroke:#181818;stroke-width:1;"/><polygon fill="#181818" points="400.71,285.8405,390.8612,285.8084,396.1344,287.8563,394.0865,293.1294,400.71,285.8405" style="stroke:#181818;stroke-width:1;stroke-linejoin:miter;stroke-miterlimit:10;"/><text fill="#000000" font-family="sans-serif" font-size="13" lengthAdjust="spacing" textLength="24.4131" x="285.73" y="325.1488">x32</text></g><!--link Client_Mixin to REST_Transport--><g class="link" data-entity-1="ent0004" data-entity-2="ent0011" data-link-type="dependency" data-source-line="26" id="lnk20"><path d="M255.22,390.8305 C351.65,386.4005 557.5652,376.9594 662.0852,372.1694" fill="none" id="Client_Mixin-to-REST_Transport" style="stroke:#181818;stroke-width:1;"/><polygon fill="#181818" points="667.08,371.9405,657.9063,368.3567,662.0852,372.1694,658.2726,376.3483,667.08,371.9405" style="stroke:#181818;stroke-width:1;stroke-linejoin:miter;stroke-miterlimit:10;"/></g><!--link Client_Mixin to gRPC_Transport--><g class="link" data-entity-1="ent0004" data-entity-2="ent0013" data-link-type="dependency" data-source-line="27" id="lnk21"><path d="M255.22,398.8805 C351.27,409.8905 555.9226,433.3605 660.8626,445.4005" fill="none" id="Client_Mixin-to-gRPC_Transport" style="stroke:#181818;stroke-width:1;"/><polygon fill="#181818" points="665.83,445.9705,657.3446,440.9707,660.8626,445.4005,656.4327,448.9185,665.83,445.9705" style="stroke:#181818;stroke-width:1;stroke-linejoin:miter;stroke-miterlimit:10;"/></g><!--link Generated_REST_Services to API_Config--><g class="link" data-entity-1="ent0008" data-entity-2="ent0001" data-link-type="dependency" data-source-line="28" id="lnk22"><path d="M753,169.5105 C785.24,144.3005 847.17,100.2505 908.23,81.1305 C999.02,52.6905 1026.96,60.1505 1121.85,67.1305 C1131.48,67.8405 1136.8093,68.3498 1146.5593,69.7298" fill="none" id="Generated_REST_Services-to-API_Config" style="stroke:#181818;stroke-width:1;"/><polygon fill="#181818" points="1151.51,70.4305,1143.1594,65.2087,1146.5593,69.7298,1142.0383,73.1297,1151.51,70.4305" style="stroke:#181818;stroke-width:1;stroke-linejoin:miter;stroke-miterlimit:10;"/><text fill="#000000" font-family="sans-serif" font-size="13" lengthAdjust="spacing" textLength="24.4131" x="987.54" y="57.2988">x43</text></g><!--link Generated_REST_Services to Generated_Error_Classes--><g class="link" data-entity-1="ent0008" data-entity-2="ent0006" data-link-type="dependency" data-source-line="29" id="lnk23"><path d="M822.61,188.1305 C850.19,188.1305 875.39,188.1305 902.87,188.1305" fill="none" id="Generated_REST_Services-to-Generated_Error_Classes" style="stroke:#181818;stroke-width:1;"/><polygon fill="#181818" points="907.87,188.1305,898.87,184.1305,902.87,188.1305,898.87,192.1305,907.87,188.1305" style="stroke:#181818;stroke-width:1;stroke-linejoin:miter;stroke-miterlimit:10;"/><text fill="#000000" font-family="sans-serif" font-size="13" lengthAdjust="spacing" textLength="24.4131" x="853.23" y="184.6988">x43</text></g><!--link Generated_REST_Services to Generated_Models--><g class="link" data-entity-1="ent0008" data-entity-2="ent0007" data-link-type="dependency" data-source-line="30" id="lnk24"><path d="M800.77,206.7805 C840.04,217.1805 883.9565,228.8007 923.2365,239.2007" fill="none" id="Generated_REST_Services-to-Generated_Models" style="stroke:#181818;stroke-width:1;"/><polygon fill="#181818" points="928.07,240.4805,920.3936,234.3102,923.2365,239.2007,918.346,242.0437,928.07,240.4805" style="stroke:#181818;stroke-width:1;stroke-linejoin:miter;stroke-miterlimit:10;"/><text fill="#000000" font-family="sans-serif" font-size="13" lengthAdjust="spacing" textLength="24.4131" x="853.23" y="218.0688">x43</text></g><!--link Generated_REST_Services to REST_Runtime--><g class="link" data-entity-1="ent0008" data-entity-2="ent0010" data-link-type="dependency" data-source-line="31" id="lnk25"><path d="M800.77,169.4705 C845.01,157.7605 896.4464,144.1496 937.6364,133.2496" fill="none" id="Generated_REST_Services-to-REST_Runtime" style="stroke:#181818;stroke-width:1;"/><polygon fill="#181818" points="942.47,131.9705,932.7462,130.406,937.6364,133.2496,934.7928,138.1398,942.47,131.9705" style="stroke:#181818;stroke-width:1;stroke-linejoin:miter;stroke-miterlimit:10;"/><text fill="#000000" font-family="sans-serif" font-size="13" lengthAdjust="spacing" textLength="24.4131" x="853.23" y="147.0688">x43</text></g><!--link Generated_Service_Wrappers to Generated_REST_Services--><g class="link" data-entity-1="ent0009" data-entity-2="ent0008" data-link-type="dependency" data-source-line="32" id="lnk26"><path d="M513.31,248.4105 C558.06,235.8605 611.9457,220.7506 656.6957,208.2006" fill="none" id="Generated_Service_Wrappers-to-Generated_REST_Services" style="stroke:#181818;stroke-width:1;"/><polygon fill="#181818" points="661.51,206.8505,651.7642,205.4293,656.6957,208.2006,653.9244,213.1321,661.51,206.8505" style="stroke:#181818;stroke-width:1;stroke-linejoin:miter;stroke-miterlimit:10;"/><text fill="#000000" font-family="sans-serif" font-size="13" lengthAdjust="spacing" textLength="24.4131" x="581.36" y="219.4688">x43</text></g><!--link Generated_Service_Wrappers to REST_Transport--><g class="link" data-entity-1="ent0009" data-entity-2="ent0011" data-link-type="dependency" data-source-line="33" id="lnk27"><path d="M550.44,277.0705 C569.4,280.6505 588.74,285.5105 606.36,292.1305 C643.86,306.2105 678.1407,329.7299 701.5607,347.6699" fill="none" id="Generated_Service_Wrappers-to-REST_Transport" style="stroke:#181818;stroke-width:1;"/><polygon fill="#181818" points="705.53,350.7105,700.8177,342.0621,701.5607,347.6699,695.9529,348.413,705.53,350.7105" style="stroke:#181818;stroke-width:1;stroke-linejoin:miter;stroke-miterlimit:10;"/><text fill="#000000" font-family="sans-serif" font-size="13" lengthAdjust="spacing" textLength="24.4131" x="581.36" y="280.6588">x32</text></g><!--link Generated_Service_Wrappers to gRPC_Transport--><g class="link" data-entity-1="ent0009" data-entity-2="ent0013" data-link-type="dependency" data-source-line="34" id="lnk28"><path d="M469.73,285.7205 C504.74,313.3805 573.68,366.2805 636.36,405.1305 C653.34,415.6605 668.417,423.8262 685.107,432.2562" fill="none" id="Generated_Service_Wrappers-to-gRPC_Transport" style="stroke:#181818;stroke-width:1;"/><polygon fill="#181818" points="689.57,434.5105,683.34,426.8824,685.107,432.2562,679.7332,434.0233,689.57,434.5105" style="stroke:#181818;stroke-width:1;stroke-linejoin:miter;stroke-miterlimit:10;"/><text fill="#000000" font-family="sans-serif" font-size="13" lengthAdjust="spacing" textLength="24.4131" x="581.36" y="366.2388">x32</text></g><!--link REST_Runtime to API_Config--><g class="link" data-entity-1="ent0010" data-entity-2="ent0001" data-link-type="dependency" data-source-line="35" id="lnk29"><path d="M1056.62,105.9505 C1086.77,99.9405 1118.5362,93.6064 1146.7262,87.9964" fill="none" id="REST_Runtime-to-API_Config" style="stroke:#181818;stroke-width:1;"/><polygon fill="#181818" points="1151.63,87.0205,1142.0224,84.854,1146.7262,87.9964,1143.5838,92.7002,1151.63,87.0205" style="stroke:#181818;stroke-width:1;stroke-linejoin:miter;stroke-miterlimit:10;"/></g><!--link REST_Runtime to Error_Types--><g class="link" data-entity-1="ent0010" data-entity-2="ent0005" data-link-type="dependency" data-source-line="36" id="lnk30"><path d="M1056.53,119.0405 C1124.74,121.3805 1233.8329,125.1099 1298.2929,127.3099" fill="none" id="REST_Runtime-to-Error_Types" style="stroke:#181818;stroke-width:1;"/><polygon fill="#181818" points="1303.29,127.4805,1294.4317,123.1758,1298.2929,127.3099,1294.1588,131.1712,1303.29,127.4805" style="stroke:#181818;stroke-width:1;stroke-linejoin:miter;stroke-miterlimit:10;"/></g><!--link REST_Transport to API_Config--><g class="link" data-entity-1="ent0011" data-entity-2="ent0001" data-link-type="dependency" data-source-line="37" id="lnk31"><path d="M791.37,363.1405 C881.62,353.2205 1044.87,330.8605 1090.85,295.1305 C1157.32,243.4805 1183.3925,144.062 1191.9425,101.622" fill="none" id="REST_Transport-to-API_Config" style="stroke:#181818;stroke-width:1;"/><polygon fill="#181818" points="1192.93,96.7205,1187.2313,104.7532,1191.9425,101.622,1195.0738,106.3332,1192.93,96.7205" style="stroke:#181818;stroke-width:1;stroke-linejoin:miter;stroke-miterlimit:10;"/></g><!--link REST_Transport to Auth_Credentials--><g class="link" data-entity-1="ent0011" data-entity-2="ent0002" data-link-type="dependency" data-source-line="38" id="lnk32"><path d="M770.45,387.8405 C821.17,411.4805 903.3781,449.7781 954.0081,473.3781" fill="none" id="REST_Transport-to-Auth_Credentials" style="stroke:#181818;stroke-width:1;"/><polygon fill="#181818" points="958.54,475.4905,952.0726,468.0626,954.0081,473.3781,948.6927,475.3136,958.54,475.4905" style="stroke:#181818;stroke-width:1;stroke-linejoin:miter;stroke-miterlimit:10;"/></g><!--link REST_Transport to Transport_Base--><g class="link" data-entity-1="ent0011" data-entity-2="ent0012" data-link-type="dependency" data-source-line="39" id="lnk33"><path d="M791.5,378.9405 C835.57,386.0005 889.793,394.699 933.583,401.719" fill="none" id="REST_Transport-to-Transport_Base" style="stroke:#181818;stroke-width:1;"/><polygon fill="#181818" points="938.52,402.5105,930.2666,397.1363,933.583,401.719,929.0003,405.0354,938.52,402.5105" style="stroke:#181818;stroke-width:1;stroke-linejoin:miter;stroke-miterlimit:10;"/></g><!--link gRPC_Transport to Auth_Credentials--><g class="link" data-entity-1="ent0013" data-entity-2="ent0002" data-link-type="dependency" data-source-line="40" id="lnk34"><path d="M792.63,462.9105 C811.75,465.8905 832.85,469.1605 852.23,472.1305 C878.51,476.1505 902.5052,479.7795 927.6652,483.5495" fill="none" id="gRPC_Transport-to-Auth_Credentials" style="stroke:#181818;stroke-width:1;"/><polygon fill="#181818" points="932.61,484.2905,924.3021,479.001,927.6652,483.5495,923.1166,486.9126,932.61,484.2905" style="stroke:#181818;stroke-width:1;stroke-linejoin:miter;stroke-miterlimit:10;"/></g><!--link gRPC_Transport to Transport_Base--><g class="link" data-entity-1="ent0013" data-entity-2="ent0012" data-link-type="dependency" data-source-line="41" id="lnk35"><path d="M792.51,443.6205 C836.46,436.9005 890.1075,428.7067 933.5675,422.0567" fill="none" id="gRPC_Transport-to-Transport_Base" style="stroke:#181818;stroke-width:1;"/><polygon fill="#181818" points="938.51,421.3005,929.0085,418.7078,933.5675,422.0567,930.2186,426.6157,938.51,421.3005" style="stroke:#181818;stroke-width:1;stroke-linejoin:miter;stroke-miterlimit:10;"/></g><?plantuml-src bLCxRy8m4DxpAqxiBALJXqfjG5M5a111wXXPv0WMmROSqyA_hsERn7PC7nEv-nvtkNmegXg49J95Zr3Cbx0vwySJmXm5iWhPxWeh8h86zmeK1qdhWuAAIjmfobdM7YaJH98JxFX9SAQD2dNLbXs1iBf1Zz8UICM_AAjXJveMiwpNmEHb_GuvPtjQJu2qeClIbW7fh0wGIwowVRM5fUfcwJLzGTxGxbUx6QejIrqcI2jweSodcOPFN4Z99Mol0kraKvUczcblo50IXPKbQ3lIjaxIOwKLEomjN_4AcrXdcsd1Pb5ieK3vINUZUHrMth2qtA7m8OaGA6C71vSts3SnarrsZCoCSuqHSIi9QmMNQg3sBP_SD-6LjDQtRvLTooVNctKUENSjppaRKWNJwNFm_OPe66WKgWWF8X9XqVj4QBIJRsJm-_U69xZC7iQAzBm1ZoRUYOHzxU50UjZZx4VodIp_IsdJ_0U9dwSHVNIfS4ZezYTnU5Dt-LyquPsT9jWxFF4OymCPRP2IHcWSsGGd-lT46oTT4fpGvHi0?></g></svg>